<?xml version="1.0" standalone="no"?><!DOCTYPE svg PUBLIC "-//W3C//DTD SVG 1.1//EN" "http://www.w3.org/Graphics/SVG/1.1/DTD/svg11.dtd"><svg t="1607593263834" class="icon" viewBox="0 0 1024 1024" version="1.1" xmlns="http://www.w3.org/2000/svg" p-id="3027" xmlns:xlink="http://www.w3.org/1999/xlink" width="200" height="200"><defs><style type="text/css"></style></defs><path d="M834.56 128c69.12 0 125.184 55.68 125.184 124.352v62.208H960v87.04H796.928V960l-93.44-0.064-89.6-87.488-89.408 87.488h-6.208l-89.344-87.488-89.344 87.488h-6.272l-89.344-87.488-89.856 87.488L64 960V314.56A187.2 187.2 0 0 1 251.84 128h582.72z m-125.248 87.04H245.568c-51.84 0-93.952 41.792-93.952 93.312v532.16l92.352-90.368 92.48 90.56 92.48-90.56 92.48 90.56 92.416-90.56 95.488 93.504V215.04zM547.968 492.16v87.04H247.552v-87.04h300.416z m72.064-177.6v87.04h-372.48v-87.04h372.48z m214.528-99.52a37.44 37.44 0 0 0-37.568 37.312l-0.064 62.208h75.136v-62.208a37.44 37.44 0 0 0-37.504-37.312z" p-id="3028" fill="#333333"></path></svg>